<?xml version="1.0" encoding="UTF-8" standalone="no"?><svg xmlns="http://www.w3.org/2000/svg" xmlns:xlink="http://www.w3.org/1999/xlink" contentStyleType="text/css" height="542px" preserveAspectRatio="none" style="width:1462px;height:542px;background:#FFFFFF;" version="1.1" viewBox="0 0 1462 542" width="1462px" zoomAndPan="magnify"><defs/><g><rect height="26.2969" style="stroke:#00000000;stroke-width:1.0;fill:none;" width="178" x="635.25" y="5"/><text fill="#000000" font-family="sans-serif" font-size="14" font-weight="bold" lengthAdjust="spacing" textLength="168" x="640.25" y="22.9951">Classes - Mars Rover</text><!--MD5=[d73e7696e4b9f5e6967f99e24905332a]
class InputConsole--><g id="elem_InputConsole"><rect codeLine="3" fill="#F1F1F1" height="96.8906" id="InputConsole" rx="2.5" ry="2.5" style="stroke:#181818;stroke-width:0.5;" width="193" x="181" y="60.2969"/><ellipse cx="225.75" cy="76.2969" fill="#ADD1B2" rx="11" ry="11" style="stroke:#181818;stroke-width:1.0;"/><path d="M228.0938,71.9688 C227.1563,71.5313 226.5625,71.3906 225.6875,71.3906 C223.0625,71.3906 221.0625,73.4688 221.0625,76.1875 L221.0625,77.3125 C221.0625,79.8906 223.1719,81.7813 226.0625,81.7813 C227.2813,81.7813 228.4375,81.4844 229.1875,80.9375 C229.7656,80.5313 230.0938,80.0781 230.0938,79.6875 C230.0938,79.2344 229.7031,78.8438 229.2344,78.8438 C229.0156,78.8438 228.8125,78.9219 228.625,79.1094 C228.1719,79.5938 228.1719,79.5938 227.9844,79.6875 C227.5625,79.9531 226.875,80.0781 226.1094,80.0781 C224.0625,80.0781 222.7656,78.9844 222.7656,77.2813 L222.7656,76.1875 C222.7656,74.4063 224.0156,73.0938 225.75,73.0938 C226.3281,73.0938 226.9375,73.25 227.4063,73.5 C227.8906,73.7813 228.0625,74 228.1563,74.4063 C228.2188,74.8125 228.25,74.9375 228.3906,75.0625 C228.5313,75.2031 228.7656,75.3125 228.9844,75.3125 C229.25,75.3125 229.5156,75.1719 229.6875,74.9531 C229.7969,74.7969 229.8281,74.6094 229.8281,74.1875 L229.8281,72.7656 C229.8281,72.3281 229.8125,72.2031 229.7188,72.0469 C229.5625,71.7813 229.2813,71.6406 228.9844,71.6406 C228.6875,71.6406 228.4844,71.7344 228.2656,72.0469 L228.0938,71.9688 Z " fill="#000000"/><text fill="#000000" font-family="sans-serif" font-size="14" lengthAdjust="spacing" textLength="95" x="246.25" y="81.1436">InputConsole</text><line style="stroke:#181818;stroke-width:0.5;" x1="182" x2="373" y1="92.2969" y2="92.2969"/><rect fill="none" height="6" style="stroke:#C82930;stroke-width:1.0;" width="6" x="189" y="100.2969"/><text fill="#000000" font-family="sans-serif" font-size="14" lengthAdjust="spacing" textLength="160" x="201" y="109.292">int MIN_PLATEAU_SIZE</text><rect fill="none" height="6" style="stroke:#C82930;stroke-width:1.0;" width="6" x="189" y="116.5938"/><text fill="#000000" font-family="sans-serif" font-size="14" lengthAdjust="spacing" textLength="166" x="201" y="125.5889">int MAX_PLATEAU_SIZE</text><line style="stroke:#181818;stroke-width:0.5;" x1="182" x2="373" y1="132.8906" y2="132.8906"/><ellipse cx="192" cy="143.8906" fill="#84BE84" rx="3" ry="3" style="stroke:#038048;stroke-width:1.0;"/><text fill="#000000" font-family="sans-serif" font-size="14" lengthAdjust="spacing" textLength="167" x="201" y="149.8857">void main(String[] args)</text></g><!--MD5=[82d9c97a467af7c0b2c072e754b85475]
class GameController--><g id="elem_GameController"><rect codeLine="11" fill="#F1F1F1" height="129.4844" id="GameController" rx="2.5" ry="2.5" style="stroke:#181818;stroke-width:0.5;" width="363" x="289" y="233.2969"/><ellipse cx="408.75" cy="249.2969" fill="#ADD1B2" rx="11" ry="11" style="stroke:#181818;stroke-width:1.0;"/><path d="M411.0938,244.9688 C410.1563,244.5313 409.5625,244.3906 408.6875,244.3906 C406.0625,244.3906 404.0625,246.4688 404.0625,249.1875 L404.0625,250.3125 C404.0625,252.8906 406.1719,254.7813 409.0625,254.7813 C410.2813,254.7813 411.4375,254.4844 412.1875,253.9375 C412.7656,253.5313 413.0938,253.0781 413.0938,252.6875 C413.0938,252.2344 412.7031,251.8438 412.2344,251.8438 C412.0156,251.8438 411.8125,251.9219 411.625,252.1094 C411.1719,252.5938 411.1719,252.5938 410.9844,252.6875 C410.5625,252.9531 409.875,253.0781 409.1094,253.0781 C407.0625,253.0781 405.7656,251.9844 405.7656,250.2813 L405.7656,249.1875 C405.7656,247.4063 407.0156,246.0938 408.75,246.0938 C409.3281,246.0938 409.9375,246.25 410.4063,246.5 C410.8906,246.7813 411.0625,247 411.1563,247.4063 C411.2188,247.8125 411.25,247.9375 411.3906,248.0625 C411.5313,248.2031 411.7656,248.3125 411.9844,248.3125 C412.25,248.3125 412.5156,248.1719 412.6875,247.9531 C412.7969,247.7969 412.8281,247.6094 412.8281,247.1875 L412.8281,245.7656 C412.8281,245.3281 412.8125,245.2031 412.7188,245.0469 C412.5625,244.7813 412.2813,244.6406 411.9844,244.6406 C411.6875,244.6406 411.4844,244.7344 411.2656,245.0469 L411.0938,244.9688 Z " fill="#000000"/><text fill="#000000" font-family="sans-serif" font-size="14" lengthAdjust="spacing" textLength="115" x="429.25" y="254.1436">GameController</text><line style="stroke:#181818;stroke-width:0.5;" x1="290" x2="651" y1="265.2969" y2="265.2969"/><rect fill="none" height="6" style="stroke:#C82930;stroke-width:1.0;" width="6" x="297" y="273.2969"/><text fill="#000000" font-family="sans-serif" font-size="14" lengthAdjust="spacing" textLength="111" x="309" y="282.292">Plateau plateau</text><rect fill="none" height="6" style="stroke:#C82930;stroke-width:1.0;" width="6" x="297" y="289.5938"/><text fill="#000000" font-family="sans-serif" font-size="14" lengthAdjust="spacing" textLength="84" x="309" y="298.5889">Rover rover</text><line style="stroke:#181818;stroke-width:0.5;" x1="290" x2="651" y1="305.8906" y2="305.8906"/><ellipse cx="300" cy="316.8906" fill="#84BE84" rx="3" ry="3" style="stroke:#038048;stroke-width:1.0;"/><text fill="#000000" font-family="sans-serif" font-size="14" lengthAdjust="spacing" textLength="244" x="309" y="322.8857">boolean createPlateau(int x, int y)</text><ellipse cx="300" cy="333.1875" fill="#84BE84" rx="3" ry="3" style="stroke:#038048;stroke-width:1.0;"/><text fill="#000000" font-family="sans-serif" font-size="14" lengthAdjust="spacing" textLength="308" x="309" y="339.1826">boolean createRover(int x, int y, String dir)</text><ellipse cx="300" cy="349.4844" fill="#84BE84" rx="3" ry="3" style="stroke:#038048;stroke-width:1.0;"/><text fill="#000000" font-family="sans-serif" font-size="14" lengthAdjust="spacing" textLength="337" x="309" y="355.4795">boolean moveRover(Rover R, String command)</text></g><!--MD5=[712b49a80551510261ad10524cc74d81]
class Plateau--><g id="elem_Plateau"><rect codeLine="19" fill="#F1F1F1" height="113.1875" id="Plateau" rx="2.5" ry="2.5" style="stroke:#181818;stroke-width:0.5;" width="265" x="955" y="52.2969"/><ellipse cx="1056.75" cy="68.2969" fill="#ADD1B2" rx="11" ry="11" style="stroke:#181818;stroke-width:1.0;"/><path d="M1059.0938,63.9688 C1058.1563,63.5313 1057.5625,63.3906 1056.6875,63.3906 C1054.0625,63.3906 1052.0625,65.4688 1052.0625,68.1875 L1052.0625,69.3125 C1052.0625,71.8906 1054.1719,73.7813 1057.0625,73.7813 C1058.2813,73.7813 1059.4375,73.4844 1060.1875,72.9375 C1060.7656,72.5313 1061.0938,72.0781 1061.0938,71.6875 C1061.0938,71.2344 1060.7031,70.8438 1060.2344,70.8438 C1060.0156,70.8438 1059.8125,70.9219 1059.625,71.1094 C1059.1719,71.5938 1059.1719,71.5938 1058.9844,71.6875 C1058.5625,71.9531 1057.875,72.0781 1057.1094,72.0781 C1055.0625,72.0781 1053.7656,70.9844 1053.7656,69.2813 L1053.7656,68.1875 C1053.7656,66.4063 1055.0156,65.0938 1056.75,65.0938 C1057.3281,65.0938 1057.9375,65.25 1058.4063,65.5 C1058.8906,65.7813 1059.0625,66 1059.1563,66.4063 C1059.2188,66.8125 1059.25,66.9375 1059.3906,67.0625 C1059.5313,67.2031 1059.7656,67.3125 1059.9844,67.3125 C1060.25,67.3125 1060.5156,67.1719 1060.6875,66.9531 C1060.7969,66.7969 1060.8281,66.6094 1060.8281,66.1875 L1060.8281,64.7656 C1060.8281,64.3281 1060.8125,64.2031 1060.7188,64.0469 C1060.5625,63.7813 1060.2813,63.6406 1059.9844,63.6406 C1059.6875,63.6406 1059.4844,63.7344 1059.2656,64.0469 L1059.0938,63.9688 Z " fill="#000000"/><text fill="#000000" font-family="sans-serif" font-size="14" lengthAdjust="spacing" textLength="53" x="1077.25" y="73.1436">Plateau</text><line style="stroke:#181818;stroke-width:0.5;" x1="956" x2="1219" y1="84.2969" y2="84.2969"/><rect fill="none" height="6" style="stroke:#C82930;stroke-width:1.0;" width="6" x="963" y="92.2969"/><text fill="#000000" font-family="sans-serif" font-size="14" lengthAdjust="spacing" textLength="64" x="975" y="101.292">int width</text><rect fill="none" height="6" style="stroke:#C82930;stroke-width:1.0;" width="6" x="963" y="108.5938"/><text fill="#000000" font-family="sans-serif" font-size="14" lengthAdjust="spacing" textLength="71" x="975" y="117.5889">int height</text><rect fill="none" height="6" style="stroke:#C82930;stroke-width:1.0;" width="6" x="963" y="124.8906"/><text fill="#000000" font-family="sans-serif" font-size="14" lengthAdjust="spacing" textLength="239" x="975" y="133.8857">HashMap&lt;Rover,Position&gt; rovers</text><line style="stroke:#181818;stroke-width:0.5;" x1="956" x2="1219" y1="141.1875" y2="141.1875"/><ellipse cx="966" cy="152.1875" fill="#84BE84" rx="3" ry="3" style="stroke:#038048;stroke-width:1.0;"/><text fill="#000000" font-family="sans-serif" font-size="14" lengthAdjust="spacing" textLength="168" x="975" y="158.1826">void setRovers(Rover r)</text></g><!--MD5=[862e3b5a2d6b51ec373bea2c238d7467]
class Rover--><g id="elem_Rover"><rect codeLine="37" fill="#F1F1F1" height="96.8906" id="Rover" rx="2.5" ry="2.5" style="stroke:#181818;stroke-width:0.5;" width="276" x="949.5" y="249.2969"/><ellipse cx="1062.25" cy="265.2969" fill="#ADD1B2" rx="11" ry="11" style="stroke:#181818;stroke-width:1.0;"/><path d="M1064.5938,260.9688 C1063.6563,260.5313 1063.0625,260.3906 1062.1875,260.3906 C1059.5625,260.3906 1057.5625,262.4688 1057.5625,265.1875 L1057.5625,266.3125 C1057.5625,268.8906 1059.6719,270.7813 1062.5625,270.7813 C1063.7813,270.7813 1064.9375,270.4844 1065.6875,269.9375 C1066.2656,269.5313 1066.5938,269.0781 1066.5938,268.6875 C1066.5938,268.2344 1066.2031,267.8438 1065.7344,267.8438 C1065.5156,267.8438 1065.3125,267.9219 1065.125,268.1094 C1064.6719,268.5938 1064.6719,268.5938 1064.4844,268.6875 C1064.0625,268.9531 1063.375,269.0781 1062.6094,269.0781 C1060.5625,269.0781 1059.2656,267.9844 1059.2656,266.2813 L1059.2656,265.1875 C1059.2656,263.4063 1060.5156,262.0938 1062.25,262.0938 C1062.8281,262.0938 1063.4375,262.25 1063.9063,262.5 C1064.3906,262.7813 1064.5625,263 1064.6563,263.4063 C1064.7188,263.8125 1064.75,263.9375 1064.8906,264.0625 C1065.0313,264.2031 1065.2656,264.3125 1065.4844,264.3125 C1065.75,264.3125 1066.0156,264.1719 1066.1875,263.9531 C1066.2969,263.7969 1066.3281,263.6094 1066.3281,263.1875 L1066.3281,261.7656 C1066.3281,261.3281 1066.3125,261.2031 1066.2188,261.0469 C1066.0625,260.7813 1065.7813,260.6406 1065.4844,260.6406 C1065.1875,260.6406 1064.9844,260.7344 1064.7656,261.0469 L1064.5938,260.9688 Z " fill="#000000"/><text fill="#000000" font-family="sans-serif" font-size="14" lengthAdjust="spacing" textLength="42" x="1082.75" y="270.1436">Rover</text><line style="stroke:#181818;stroke-width:0.5;" x1="950.5" x2="1224.5" y1="281.2969" y2="281.2969"/><rect fill="none" height="6" style="stroke:#C82930;stroke-width:1.0;" width="6" x="957.5" y="289.2969"/><text fill="#000000" font-family="sans-serif" font-size="14" lengthAdjust="spacing" textLength="121" x="969.5" y="298.292">Position position</text><line style="stroke:#181818;stroke-width:0.5;" x1="950.5" x2="1224.5" y1="305.5938" y2="305.5938"/><ellipse cx="960.5" cy="316.5938" fill="#84BE84" rx="3" ry="3" style="stroke:#038048;stroke-width:1.0;"/><text fill="#000000" font-family="sans-serif" font-size="14" lengthAdjust="spacing" textLength="250" x="969.5" y="322.5889">void setPosition (Position position)</text><ellipse cx="960.5" cy="332.8906" fill="#84BE84" rx="3" ry="3" style="stroke:#038048;stroke-width:1.0;"/><text fill="#000000" font-family="sans-serif" font-size="14" lengthAdjust="spacing" textLength="155" x="969.5" y="338.8857">Position getPosition()</text></g><!--MD5=[744f61860a85fe27a4c24a6e0cf647e6]
class PlateauController--><g id="elem_PlateauController"><rect codeLine="30" fill="#F1F1F1" height="113.1875" id="PlateauController" rx="2.5" ry="2.5" style="stroke:#181818;stroke-width:0.5;" width="927" x="7" y="422.2969"/><ellipse cx="403.25" cy="438.2969" fill="#ADD1B2" rx="11" ry="11" style="stroke:#181818;stroke-width:1.0;"/><path d="M405.5938,433.9688 C404.6563,433.5313 404.0625,433.3906 403.1875,433.3906 C400.5625,433.3906 398.5625,435.4688 398.5625,438.1875 L398.5625,439.3125 C398.5625,441.8906 400.6719,443.7813 403.5625,443.7813 C404.7813,443.7813 405.9375,443.4844 406.6875,442.9375 C407.2656,442.5313 407.5938,442.0781 407.5938,441.6875 C407.5938,441.2344 407.2031,440.8438 406.7344,440.8438 C406.5156,440.8438 406.3125,440.9219 406.125,441.1094 C405.6719,441.5938 405.6719,441.5938 405.4844,441.6875 C405.0625,441.9531 404.375,442.0781 403.6094,442.0781 C401.5625,442.0781 400.2656,440.9844 400.2656,439.2813 L400.2656,438.1875 C400.2656,436.4063 401.5156,435.0938 403.25,435.0938 C403.8281,435.0938 404.4375,435.25 404.9063,435.5 C405.3906,435.7813 405.5625,436 405.6563,436.4063 C405.7188,436.8125 405.75,436.9375 405.8906,437.0625 C406.0313,437.2031 406.2656,437.3125 406.4844,437.3125 C406.75,437.3125 407.0156,437.1719 407.1875,436.9531 C407.2969,436.7969 407.3281,436.6094 407.3281,436.1875 L407.3281,434.7656 C407.3281,434.3281 407.3125,434.2031 407.2188,434.0469 C407.0625,433.7813 406.7813,433.6406 406.4844,433.6406 C406.1875,433.6406 405.9844,433.7344 405.7656,434.0469 L405.5938,433.9688 Z " fill="#000000"/><text fill="#000000" font-family="sans-serif" font-size="14" lengthAdjust="spacing" textLength="126" x="423.75" y="443.1436">PlateauController</text><line style="stroke:#181818;stroke-width:0.5;" x1="8" x2="933" y1="454.2969" y2="454.2969"/><line style="stroke:#181818;stroke-width:0.5;" x1="8" x2="933" y1="462.2969" y2="462.2969"/><ellipse cx="18" cy="473.2969" fill="#84BE84" rx="3" ry="3" style="stroke:#038048;stroke-width:1.0;"/><text fill="#000000" font-family="sans-serif" font-size="14" lengthAdjust="spacing" textLength="258" x="27" y="479.292">void createPlateauRover(int x, int y)</text><ellipse cx="18" cy="489.5938" fill="#84BE84" rx="3" ry="3" style="stroke:#038048;stroke-width:1.0;"/><text fill="#000000" font-family="sans-serif" font-size="14" lengthAdjust="spacing" textLength="367" x="27" y="495.5889">connectPlateauRover(Plateau plateau, Rover rover)</text><ellipse cx="18" cy="505.8906" fill="#84BE84" rx="3" ry="3" style="stroke:#038048;stroke-width:1.0;"/><text fill="#000000" font-family="sans-serif" font-size="14" lengthAdjust="spacing" textLength="901" x="27" y="511.8857">boolean checkRoverCollision(Plateau plateau, Rover rover, Position newPosition, Position currentPosition, boolean isCreation)</text><ellipse cx="18" cy="522.1875" fill="#84BE84" rx="3" ry="3" style="stroke:#038048;stroke-width:1.0;"/><text fill="#000000" font-family="sans-serif" font-size="14" lengthAdjust="spacing" textLength="620" x="27" y="528.1826">afterCheckCollison(Plateau plateau, Rover rover, Position position, boolean isCollision)</text></g><!--MD5=[43ad5eac4373a8d909d8c434502d0cc9]
class RoverController--><g id="elem_RoverController"><rect codeLine="43" fill="#F1F1F1" height="80.5938" id="RoverController" rx="2.5" ry="2.5" style="stroke:#181818;stroke-width:0.5;" width="510" x="409.5" y="68.2969"/><ellipse cx="602.75" cy="84.2969" fill="#ADD1B2" rx="11" ry="11" style="stroke:#181818;stroke-width:1.0;"/><path d="M605.0938,79.9688 C604.1563,79.5313 603.5625,79.3906 602.6875,79.3906 C600.0625,79.3906 598.0625,81.4688 598.0625,84.1875 L598.0625,85.3125 C598.0625,87.8906 600.1719,89.7813 603.0625,89.7813 C604.2813,89.7813 605.4375,89.4844 606.1875,88.9375 C606.7656,88.5313 607.0938,88.0781 607.0938,87.6875 C607.0938,87.2344 606.7031,86.8438 606.2344,86.8438 C606.0156,86.8438 605.8125,86.9219 605.625,87.1094 C605.1719,87.5938 605.1719,87.5938 604.9844,87.6875 C604.5625,87.9531 603.875,88.0781 603.1094,88.0781 C601.0625,88.0781 599.7656,86.9844 599.7656,85.2813 L599.7656,84.1875 C599.7656,82.4063 601.0156,81.0938 602.75,81.0938 C603.3281,81.0938 603.9375,81.25 604.4063,81.5 C604.8906,81.7813 605.0625,82 605.1563,82.4063 C605.2188,82.8125 605.25,82.9375 605.3906,83.0625 C605.5313,83.2031 605.7656,83.3125 605.9844,83.3125 C606.25,83.3125 606.5156,83.1719 606.6875,82.9531 C606.7969,82.7969 606.8281,82.6094 606.8281,82.1875 L606.8281,80.7656 C606.8281,80.3281 606.8125,80.2031 606.7188,80.0469 C606.5625,79.7813 606.2813,79.6406 605.9844,79.6406 C605.6875,79.6406 605.4844,79.7344 605.2656,80.0469 L605.0938,79.9688 Z " fill="#000000"/><text fill="#000000" font-family="sans-serif" font-size="14" lengthAdjust="spacing" textLength="115" x="623.25" y="89.1436">RoverController</text><line style="stroke:#181818;stroke-width:0.5;" x1="410.5" x2="918.5" y1="100.2969" y2="100.2969"/><line style="stroke:#181818;stroke-width:0.5;" x1="410.5" x2="918.5" y1="108.2969" y2="108.2969"/><ellipse cx="420.5" cy="119.2969" fill="#84BE84" rx="3" ry="3" style="stroke:#038048;stroke-width:1.0;"/><text fill="#000000" font-family="sans-serif" font-size="14" lengthAdjust="spacing" textLength="484" x="429.5" y="125.292">Position moveRover(Plateau plateau,Rover rover, String command )</text><ellipse cx="420.5" cy="135.5938" fill="#84BE84" rx="3" ry="3" style="stroke:#038048;stroke-width:1.0;"/><text fill="#000000" font-family="sans-serif" font-size="14" lengthAdjust="spacing" textLength="282" x="429.5" y="141.5889">Rover createRover(int x, int y, String d)</text></g><!--MD5=[02f7077ed79257124e28b791f351f1d7]
class Direction--><g id="elem_Direction"><rect codeLine="50" fill="#F1F1F1" height="129.4844" id="Direction" rx="2.5" ry="2.5" style="stroke:#181818;stroke-width:0.5;" width="200" x="1255.5" y="44.2969"/><ellipse cx="1317.75" cy="60.2969" fill="#EB937F" rx="11" ry="11" style="stroke:#181818;stroke-width:1.0;"/><path d="M1316.5469,61.1719 L1318,61.1719 L1318,61.2813 C1318,61.6875 1318.0313,61.8438 1318.1094,62 C1318.2656,62.25 1318.5469,62.4063 1318.8438,62.4063 C1319.0938,62.4063 1319.3594,62.2656 1319.5156,62.0469 C1319.6406,61.8906 1319.6719,61.7344 1319.6719,61.2813 L1319.6719,59.3594 C1319.6719,59.2031 1319.6719,59.1563 1319.6563,59 C1319.5938,58.5313 1319.2813,58.2188 1318.8281,58.2188 C1318.5781,58.2188 1318.3125,58.3594 1318.1406,58.5781 C1318.0313,58.75 1318,58.9063 1318,59.3594 L1318,59.4844 L1316.5469,59.4844 L1316.5469,57.0781 L1320.5313,57.0781 L1320.5313,57.9375 C1320.5313,58.3438 1320.5625,58.5156 1320.6406,58.6719 C1320.8125,58.9219 1321.0938,59.0781 1321.375,59.0781 C1321.6406,59.0781 1321.9063,58.9375 1322.0781,58.7188 C1322.1875,58.5469 1322.2188,58.4063 1322.2188,57.9375 L1322.2188,55.3906 L1314.5938,55.3906 C1314.1563,55.3906 1314.0313,55.4063 1313.875,55.5 C1313.625,55.6563 1313.4688,55.9531 1313.4688,56.2344 C1313.4688,56.5156 1313.6094,56.7656 1313.8281,56.9375 C1313.9844,57.0469 1314.1719,57.0781 1314.5938,57.0781 L1314.8438,57.0781 L1314.8438,63.5938 L1314.5938,63.5938 C1314.1875,63.5938 1314.0313,63.6094 1313.875,63.7188 C1313.625,63.8906 1313.4688,64.1563 1313.4688,64.4531 C1313.4688,64.7188 1313.6094,64.9688 1313.8281,65.125 C1313.9688,65.25 1314.2031,65.2969 1314.5938,65.2969 L1322.5938,65.2969 L1322.5938,62.7188 C1322.5938,62.2813 1322.5625,62.1406 1322.4844,61.9844 C1322.3125,61.7344 1322.0313,61.5781 1321.75,61.5781 C1321.4844,61.5781 1321.2188,61.6875 1321.0469,61.9375 C1320.9375,62.0938 1320.9063,62.2344 1320.9063,62.7188 L1320.9063,63.5938 L1316.5469,63.5938 L1316.5469,61.1719 Z " fill="#000000"/><text fill="#000000" font-family="sans-serif" font-size="14" lengthAdjust="spacing" textLength="67" x="1338.25" y="65.1436">Direction</text><line style="stroke:#181818;stroke-width:0.5;" x1="1256.5" x2="1454.5" y1="76.2969" y2="76.2969"/><text fill="#000000" font-family="sans-serif" font-size="14" lengthAdjust="spacing" textLength="14" x="1261.5" y="93.292">N,</text><text fill="#000000" font-family="sans-serif" font-size="14" lengthAdjust="spacing" textLength="13" x="1261.5" y="109.5889">S,</text><text fill="#000000" font-family="sans-serif" font-size="14" lengthAdjust="spacing" textLength="18" x="1261.5" y="125.8857">W,</text><text fill="#000000" font-family="sans-serif" font-size="14" lengthAdjust="spacing" textLength="18" x="1261.5" y="142.1826">E ;</text><line style="stroke:#181818;stroke-width:0.5;" x1="1256.5" x2="1454.5" y1="149.4844" y2="149.4844"/><text fill="#000000" font-family="sans-serif" font-size="14" lengthAdjust="spacing" textLength="188" x="1261.5" y="166.4795">boolean contains(String s)</text></g><!--MD5=[eae135bb145802cc84dc475737c9d365]
link InputConsole to GameController--><g id="link_InputConsole_GameController"><path codeLine="9" d="M326.701,157.4689 C350.378,180.4089 379.101,208.2399 404.633,232.9769 " fill="none" id="InputConsole-GameController" style="stroke:#181818;stroke-width:1.0;"/></g><!--MD5=[50d0ebb105181a61d6194ee980fe4480]
link Plateau to Rover--><g id="link_Plateau_Rover"><path codeLine="26" d="M1087.5,165.3969 C1087.5,187.5219 1087.5,213.0569 1087.5,235.6979 " fill="none" id="Plateau-to-Rover" style="stroke:#181818;stroke-width:1.0;"/><polygon fill="#181818" points="1087.5,249.0049,1091.5,243.0049,1087.5,237.0049,1083.5,243.0049,1087.5,249.0049" style="stroke:#181818;stroke-width:1.0;"/></g><!--MD5=[b58affe5166dac8928b5861c2d6fabb6]
link GameController to PlateauController--><g id="link_GameController_PlateauController"><path codeLine="28" d="M470.5,362.4099 C470.5,381.9039 470.5,403.1919 470.5,422.1149 " fill="none" id="GameController-PlateauController" style="stroke:#181818;stroke-width:1.0;"/></g><!--MD5=[3ccd66c1569b42f7b7c6ab8ce411e7c1]
link RoverController to GameController--><g id="link_RoverController_GameController"><path codeLine="48" d="M623.358,149.4549 C598.11,173.7919 565.203,205.5109 536.391,233.2829 " fill="none" id="RoverController-GameController" style="stroke:#181818;stroke-width:1.0;"/></g><!--MD5=[400c327de70585199cfca638d870724b]
@startuml
title Classes - Mars Rover

class InputConsole {
  -int MIN_PLATEAU_SIZE
  -int MAX_PLATEAU_SIZE
  +void main(String[] args)
}

InputConsole- -GameController

class GameController {
  -Plateau plateau
  -Rover rover
  +boolean createPlateau(int x, int y)
  +boolean createRover(int x, int y, String dir)
  +boolean moveRover(Rover R, String command)
}

class Plateau {
  -int width
  -int height
  -HashMap<Rover,Position> rovers
  +void setRovers(Rover r)
}

Plateau - -* Rover

GameController - -PlateauController

class PlateauController {
  +void createPlateauRover(int x, int y)
  +connectPlateauRover(Plateau plateau, Rover rover)
  +boolean checkRoverCollision(Plateau plateau, Rover rover, Position newPosition, Position currentPosition, boolean isCreation)
  +afterCheckCollison(Plateau plateau, Rover rover, Position position, boolean isCollision)
}

class Rover {
  -Position position
  +void setPosition (Position position)
  +Position getPosition()
}

class RoverController {
  +Position moveRover(Plateau plateau,Rover rover, String command )
  +Rover createRover(int x, int y, String d)
}

RoverController- -GameController

enum Direction {
    N,
    S,
    W,
    E ;
    boolean contains(String s)
    }
@enduml

PlantUML version 1.2022.4beta2(Unknown compile time)
(GPL source distribution)
Java Runtime: Java(TM) SE Runtime Environment
JVM: Java HotSpot(TM) 64-Bit Server VM
Default Encoding: UTF-8
Language: en
Country: US
--></g></svg>